/* XPM */
static char *_02e49df18e34e989691e7fd178329cfQmMoUFpDoAj9qxKD[] = {
/* columns rows colors chars-per-pixel */
"62 62 7 1 ",
"  c gray1",
". c #040303",
"X c #030403",
"o c #040403",
"O c #030304",
"+ c #030404",
"@ c #050504",
/* pixels */
"@@@@@@@@@@@@@@@@@@.@@@@o@@@@@@@@@o@@@@@@@@@@@@@@@@@@@ @@@@@@@o",
"@@@@@@@@ @@@@@@@@@o@@@@@@@@@o@@@@@@@@@@@@@@@@@@@@@@@o@@@@@@@.@",
"@o@@ @ @@@@@@@o@@@@@@@@o@@@@@@@@o@@@@@@@@ @@@@@ @@@@@@@@@@@.@@",
"@@@@@@@@@@@o @@@@@@o @@@@@@@@@@@@@o@@@@@@@@@o@@o@@@o@@o@@@o@@@",
"@@@@@@o@@ @ @@@@@@@@@@o@@@@@@@@@@@@@@@@@@@@@@@@@@@@o@@@@@@@@@@",
"@@@@ @@o@@@@@@@@ @@@@@ @@@@@@@@@@@@@o@@@@@ @@@@@@@@@@@@@@@@@@@",
"@@@@@@@@@@@@@@@@o@@@@@o@@@@@@@@@@@o@@@@@@@@@@@@@@@@@@@@@@@@@@@",
"@@@@@@@@@@@@@ @@@@@@@@@@@@@@@o@@@@@@@@@@@@@@@@@@@@@@@@@@@o@@@@",
"@ @@@@@@@@o@@@@@@@@@@@@o@@@@@@@@@@@@@@@o@@@@o@@@@@@@@@@o@@@@@@",
"@@@@o@@ @@@o@o@@@@@@@@o@@@@@@@@@@o@@@@@@@@@@@@@@@o@@ @@@@@@@@@",
"@@@o@@@@@@@@@@@@@@@o@o@@@@@@@@@@@ @@@o@@@o@@@@X@@@@@@@@@@@@@@@",
"@@@@@@@@@@@@@@@ o@@@@@@@@@@@@@@@@@@@@@@@@@@@@@o@@@@@@@@@o@@ @@",
"@@@@@@@@@@@@@@@@@@@@@@@@@@@@@@@@@ @@@@@@@@@o@o@@@@@@@@@@@@@@@@",
"@@@@@@@@@@@@@@@@@@@@@@@@@@o@@@@@@@@@@@@@@@@@@@@o@@@@@@@@@@@@@@",
"@@@@@@@@@@@@@@@@@@o@@@o.@@@@@@@@@@@@@@o@@@@@@@@@@@@@@@@@@@@@@ ",
"@@o@o@@@@@@@@@@@@@@@@@@@@@@@@@@@@@@@@@@@o@@@@@@@@@@@@@@@@@@@@ ",
"@@@oo@@@@@@@ @o@@@@ @@@@o@@o@@ @@@@@@@@@@@@@@@@@@@@@@@.@@@@@oo",
"@ @@o@@@@@@@@@@@@@@@@.@@@@@@@@@@@@@@@@@@@@@@@@@@@@@@@@@@@@@@@ ",
"@@o@@o@@@@@@@@o@ @@ @@@@@@@@@o@@@@@@@@@@@@@@@ @@@@@@@@@@@@@@@@",
"@@@@@@@@@o@@@@@@@.@@@@@@@@@@@@@@@@@@@@@@@@@@@@@@@@o@@@@@@@@@@@",
"@@@@o@@@@@@@@@ @@@o@@@@o@@@@@@@@o@o@@@@@@@@@@@@@@@@oo@ @@@@@@@",
"@ @@@@@@@@@@@@@@@@@@@@@@@@@@@@@@o@@@@@@@@@@@@@@@@o@oo@@@@@@@@@",
"@@@@@@@@@@@@@@@@@@@@@@@@@o@o@@@@@oo@@@@@@@@@ @@@@@@@@@@@@@@@@@",
"@@@@o@@@@@@@@@ o @@@@@@@@@@@@@@@@@@@@@@@@@@@@@@@oooo@@ @@@@@@@",
"@@@@@@@@@@@@@@@@@@@@@@@@o@@@@@@@@@ @@@@@@oo@@ @@o@@@@@@@o@@ @@",
"@@@o@@@@@@@@@@o@@o@@@@@@@@ @o@@@@@@@@@@@@@ @@@@@@@@@@@@@@@@@@o",
"@@@@@@@@@@@@@@@@@@@@@@@@@@@@@@o@o@@@o@@@@.@@@@@@@@@@@@@@@@@@@o",
"@@@@@@@@@@@@@@@@@@@@@@@oo@@@@@@@@oo@@@@@@o@@@@o@@@@@@@@@@@@@@@",
"@@@o@@@@@@@@@@@@o@@@@o@o@@@o @@@@@@@@@@@@@@@@@@@@@@@@@@@@@@@@@",
"@@@@@@@@@@o@@@ @@@o@@@@@@@ @o@@@@@@@@@@@@o@@@@ o@@o@ @@@@@@@@@",
"@@@@o@@@@@@@@@o@ooo@@@@@@@@o@@@@@@@@@@@@@@@@@@@@@@@@@@@@@@@@@@",
"@@@@@@@@@@@@@@@@@@@@@@@@@@.@@@@@@@@@@@@@@@@@@@o@@@@@@@@@@o@@@@",
"@@@@o@@@@@@@@ @@o@@o@@ @@@@@@@@@@@@ @@@@@@@@@@@o@@@@@@@o@@@@@@",
"@@@@@@@@@@@@@@@@@@@@@@@@o@@@ @o@@@@@o@@@o@@@@@@@@@@@@@@o@@@@@@",
"@@@@.@@o@@@@@@@@@@@@@@@@@@@@@@@@@@@@@@@@@@@@ @@@@@o@@@@@@@ @@@",
"@o@@@@@@@@@@@@o@o @o@o@@@@@@@@@@@@@@@@@@@@@@@@ @@@o@@@@@@@@@@@",
"@o@@@@@@@@@@@@@@@@@@@@@@@o@@@@@@o@@@@@@o@@@@@@@@@@@@@@ @@@@@@@",
"@@@@@@@@@o@@@@@@@@@@@@@@o@@@@@@@@o@@@@@@@@@@@@@@@@@@@@@@@ @o@@",
"@@@@@@@@@@@@@@@@@@@@@@@@@@@@o@@@@@@ @@@@@@@o@@@@@+@@@@@@@o@ @o",
"@@@@@@@@@@@@@@@@@@@@@@@@@@@@@@o@@@@@@ @@@@@@@@@@@o@@@@@@@@@@@@",
"@@@@@@@@@@@@@@@@@o@@@@@@o@@@o@@ooo@@@@@@@@@@@@@o@o@@@@@oo@@@@@",
"@@@@@@@@@@@@ o@@@@@@@o@@o@o@@@@ @@@@@@@@@@@@@o@o@@ooo@.@@@@@@@",
"@@@@o@@@o@@@@@o@@@@@@@@@@@o@@@@@@@@@@@@@@@@@@@@o@@@@@@@@@@@@@@",
"@@@@@@@@@@@@@@@@@@@@o@@@ @@@@@@@@@@@@@@@@@@@@@@@@@@@.@@@@@@@@@",
"@@@@@@@@@@@@@@@@@@@@o@@@@@@@@o@@@@o@@@O@@@@@@@@@@o@@ @@@@@@@@@",
"@@@@@@@@@@@@@@o@ @@@o@@@@@@@o@@@@o@@@@@@@@@@@@@@@@@o@@@@@@ @@@",
"@@@@@@@@@@@@@@@@@o@@@@o@@@@@@@@@@@@@@@@@@@@@o@@@@@@@@@ @@@@@ @",
"@o@@@@ o@@o@ @@@@@@@@@@@@o@@@@@@@@@@@@@@@@@@@@@@@@@@@@@@@@@@@@",
"@@@@o@@@@@o@@@@@@@@@@@@@@@@@@@@@@@@@ @@@@@@@@@@@@@@@@@@@@@@o@@",
"@@@@@@@@@@@@@@@@@@@@o@@o@ @@@@@@@ @@@o@@@@@@@@@o@@@@@@@@@@@@@@",
"@@@@@@@@@@@@@@@@@@@@@@@@o@@o@@@@@@.@@@@@@+@@@@@@@O@@@@@@@@@@@@",
"@@@@@@@@@@@@o@@@@o@@@@. @@@@@@@@@@@@@@@@@@o@@@@@@@@@@@@@@@@o@@",
"@@@@@@o@o@@@@@@o@o@@@@@@@@@@@@@@@@@@@@@@@@@@@@ @@o@@o@@@@o@@@@",
"@@@@@@@@@@@@@o@@@@@@o@@@@@o@@@@@@ @@@@@@@@@@@@@@o@@@@@@@@@@@@@",
"@@@o@o@o@@@@@@@ @@@@@@@@@@@@@@@@@@@@o@@@@@@@@@@@@@@@@@@@o@@@@@",
"@@@@@@@@@@@@@@@@@@@@oo@@@@@@@@@@@@@@o@@@@@@@@@@@@@@@@@@@o@@@@@",
"@ @@ @o@@@@@@@@@@@@@@@@@@@o@@@ @@@@@o@ @@@o@@@o@@@@@@@@@@@@@@@",
"@@@@@@@@@@@@@@@@@@@@o@@@@@o@@@@@@@@@@@o@@@@@@@@@@@@@@@@@@@o@@@",
"@@@@@@@@@@@@@@@@ @o@@@@@@@@@@@@@o@@@@@@@@@@@o@@@@@@@@@@@@@@@@@",
"@@@@@@@@@@@@@@@@ @@@@@@@@@@@oo@@@@@@@@@@@@o@@@@@@@@@@@@@@@@@@@",
"@@@@@o@@@@@@@@@@@@@@@@@@@@ @ @@o@@@@@@@@@@@@@@@@o@o@@@@@@@@@@@",
"@@@@@@ @@@@@@@@@@o@@@@@@@@oo@@@ o@@@@o@@@@o@@@@@@@@@@@@@@@@@@@"
};
