/* XPM */
static char *_480a95873f04aa7e62b0afc5da58576lnh8pZs9gWXx7Cwm[] = {
/* columns rows colors chars-per-pixel */
"62 62 128 2 ",
"   c #040404",
".  c #080707",
"X  c #070807",
"o  c #090708",
"O  c #0B0A0B",
"+  c #110D0D",
"@  c #0E100F",
"#  c #150E12",
"$  c #0F1212",
"%  c #111514",
"&  c #1B1215",
"*  c #131817",
"=  c #1F141A",
"-  c #161A1A",
";  c #191E1E",
":  c #231A17",
">  c #23161D",
",  c #24191E",
"<  c #1A201F",
"1  c #1D1F20",
"2  c #2C1C24",
"3  c #311E28",
"4  c #1E2423",
"5  c #202726",
"6  c #212827",
"7  c #242C2B",
"8  c #302420",
"9  c #362824",
"0  c #3B2C27",
"q  c #35212C",
"w  c #27312F",
"e  c #3D2532",
"r  c #273130",
"t  c #2A3534",
"y  c #2D3837",
"u  c #2E3A39",
"i  c #323738",
"p  c #323E3D",
"a  c #402735",
"s  c #432937",
"d  c #462A39",
"f  c #4A2D3D",
"g  c #4D3833",
"h  c #33403F",
"j  c #4F3041",
"k  c #543345",
"l  c #5A364A",
"z  c #5E384D",
"x  c #643C52",
"c  c #364342",
"v  c #384645",
"b  c #394847",
"n  c #3D4D4B",
"m  c #41514F",
"M  c #465857",
"N  c #5A525C",
"B  c #654A41",
"V  c #694D44",
"C  c #74544B",
"Z  c #79584E",
"A  c #6B4058",
"S  c #72445E",
"D  c #7B5357",
"F  c #764660",
"G  c #7B4964",
"H  c #7F4C68",
"J  c #7B536B",
"K  c #79586D",
"L  c #7F6578",
"P  c #876257",
"I  c #8F685C",
"U  c #926A5E",
"Y  c #854F6D",
"T  c #83526D",
"R  c #8A5371",
"E  c #915677",
"W  c #925778",
"Q  c #975A7C",
"!  c #9A5C7E",
"~  c #9B7164",
"^  c #8D677F",
"/  c #966071",
"(  c #AE7E70",
")  c #B78475",
"_  c #B88576",
"`  c #BC8879",
"'  c #9E5E81",
"]  c #A05F83",
"[  c #9B6483",
"{  c #9C6C8A",
"}  c #98768E",
"|  c #98788F",
" . c #977A91",
".. c #A26185",
"X. c #A86784",
"o. c #AC6B85",
"O. c #A66589",
"+. c #A9678B",
"@. c #A4698B",
"#. c #AC6A8D",
"$. c #B37387",
"%. c #B97988",
"&. c #AF6C90",
"*. c #B16E92",
"=. c #B57296",
"-. c #BA769A",
";. c #BD799D",
":. c #C4848B",
">. c #CC8D8D",
",. c #CB9382",
"<. c #CF908D",
"1. c #D3938E",
"2. c #D7988F",
"3. c #D9998F",
"4. c #DC9D90",
"5. c #DCA18F",
"6. c #DEA191",
"7. c #E1A291",
"8. c #E3A491",
"9. c #E4A592",
"0. c #E5A794",
"q. c #E7AB99",
"w. c #E8AC99",
"e. c #EAAF9C",
"r. c #EBB19F",
"t. c #C580A4",
"y. c #ECB3A1",
"u. c #ECB4A2",
/* pixels */
"                                                                                                                            ",
"                                                                                                                            ",
"                                                      2 S ! ] ! T d                                                         ",
"                                                    x #.] ..*.] O.*.x                                                       ",
"                                                  j =.O.O...=...O.#.#.q                                                     ",
"                                                  ..*...*.O.+.+.=.+.#.l                                                     ",
"                                                # +.#.#.&.+...&.=.+.*.l                                                     ",
"                                                  ! O.O.....*.+...] *.e                                                     ",
"                                                  f ] ] ] ] ] ] ] ] R o                                                     ",
"                                                    k ] ] ] ..+.*.! &                                                       ",
"                                                    $ J &.&.+.@.{ ^ 7 ;                                                     ",
"                                                  7 1 K } }  .} { [ q ; 4                                                   ",
"                                                  h # R #.+.+.+.+...,   u                                                   ",
"                                                  4 i T &.&.&.&.&.[ 7 r -                                                   ",
"                                                    c N } }  .| } L - u                                                     ",
"                                                    u 2 E ] ] ! S q   u                                                     ",
"                                                    u     = =         y                                                     ",
"                                                    u                 u                                                     ",
"                                                    u                 y                                                     ",
"                                                    u                 y                                                     ",
"                                                    u                 y                                                     ",
"                                                    u                 y                                                     ",
"                                                    u                 y                                                     ",
"                                                    u                 u                                                     ",
"                                                    y                 y                                                     ",
"                                              ; p v b                 m c c -                                               ",
"                                          u b 4                           X u n w                                           ",
"                                      5 n -                                     5 M <                                       ",
"                                    p 4                                             u p                                     ",
"                                  n -                                                 4 n                                   ",
"                                b %     q 2 #                                           ; h                                 ",
"                              h ;     , # f #                                       X     6 7                               ",
"                            * u       q k d     + 9 :               + g C V &     q f       c O                             ",
"                            b               + ~ r.w.9.` I U P Z U ) 7.9.9.e.6.0   > f       X b                             ",
"                          4 4             . ( u.9.9.9.9.9.9.9.9.9.9.9.9.9.9.r.5.8   #         w %                           ",
"                          c               B e.0.9.9.9.9.9.4.4.4.7.9.9.9.9.9.9.r._   X > 2 e x X c                           ",
"                        X t O #         . ,.r.9.1.:.>.8.7.4.:.3.4.1.1.4.7.7.4.w.q./ ' ] ] ] ] a u                           ",
"                        t O S ] ! R F x D w.q.9.9.>.>.1.:.9.>.8.>.:.:.3.1.1.6.9.y.:.] ] ] ] ] S % 7                         ",
"                        t   W ] ] ] ] ..3.r.9.9.9.:.1.>.>.4.>.7.<.>.1.1.:.>.9.9.0.7.o.] ] ] ] ! o u                         ",
"                        6 + ] ] ] ] ..:.9.0.9.9.9.:.9.>.7.1.>.7.1.>.2.1.:.>.9.9.0.0.1.X.] ] ] ] , y                         ",
"                        ; & ] ] ] ] ] ] >.r.0.9.9.>.9.>.8.>.>.6.1.>.1.>.:.>.9.9.y.1.] ] ] ] ] ] q t                         ",
"                        ; > ] ] ] ] ] ] o.9.r.9.9.>.9.3.:.4.>.4.1.:.>.>.1.:.9.w.w.o.] ] ] ] ] ] e t                         ",
"                        4 & ] ] ] ] ] ] ] 1.r.9.9.4.9.9.9.9.1.9.9.4.1.6.9.8.9.u.1.] ] ] ] ] ] ] e 7                         ",
"                        6 X ] ] ] ] ] ] ] $.9.u.9.9.9.9.9.9.9.9.9.9.9.9.9.9.w.0.o...] ] ] ] ] ] 2 7                         ",
"                        t   R ] ] ] ] ] ] ] :.0.u.q.9.9.9.7.4.4.8.9.9.9.9.q.q.$...;.O.] ] ] ] ' X 7                         ",
"                        h   x ] ] ] ] ] ] ] ] $.1.7.9.1.%...] ] ....$.%.%.$...] ..-.O.] ] ] ] S   7                         ",
"                        - 6 3 ] ] ] ] ] ] +...] ] ] ] ] ] ] ] ] ] ] ] ] ] ..] ] ] ] ] ] ] ] ] q % -                         ",
"                          c   Y ] ] ] ] +.t.*...] ] ] ] ] ] ] ] ] ] ] ] ] =.] ] ] ] ] ] ] ] G   7                           ",
"                          y $ q ] ] ] ] #.-.+.] ] ] ] ] ] ] ] ] ] ] ] ] ] ] ] ] ] ] ] ] ] ' > @ 4                           ",
"                            v   A ] ] ] ] ] ..] ] ] ] ] ] ] ] ] ] ] ] ] ] ] ] ] ] ] ] ] ] s   t                             ",
"                            5 4 + Y ] ] ] ] ] ] ] ] ] ] ] ] ] ] ] ] ] ] ] #.#.] ] ] ] ] k   7 O                             ",
"                              u - O H ] ] ] ] ] ] ] ] ] ] ] ] ] ] ] ] ] ] +.+.] ] ] ' d   4 ;                               ",
"                                h -   j ! ] ] ] ] ] ] ] ] ] ] ] ] ] ] ] ] ] ] ] ] E 2   7 -                                 ",
"                                  t r   & x ' ] ] ] ] ] ] ] ] ] ] ] ] ] ] ] ] Q l O X y %                                   ",
"                                    * c ;   & l R ] ] ] ] ] ] ] ] ] ] ] ' G s X   7 t                                       ",
"                                        4 p 6     > d x G R ! ! R G z e O     u m %                                         ",
"                                            4 n p 6                   O t n n -                                             ",
"                                                  O 6 t 6 - ; 4 6 h c v <                                                   ",
"                                                                                                                            ",
"                                                                                                                            ",
"                                                                                                                            ",
"                                                                                                                            "
};
