/* XPM */
static char *a58836cd7d064a22f85044cd4836900dW3E1nKMQmaJfVO0W[] = {
/* columns rows colors chars-per-pixel */
"62 62 63 1 ",
"  c #040606",
". c #0A0B0B",
"X c #0A0C0C",
"o c #0D0F0F",
"O c #0E1010",
"+ c #101212",
"@ c #151717",
"# c #181A1A",
"$ c #1E1F1F",
"% c #1E2020",
"& c #272929",
"* c #282A2A",
"= c #2D2F2F",
"- c #2E3030",
"; c #393A3A",
": c #3F4141",
"> c #424343",
", c #424444",
"< c #494B4B",
"1 c #4B4D4D",
"2 c #4C4D4D",
"3 c #595A5A",
"4 c #5D5E5E",
"5 c #6E6F6F",
"6 c #6F7070",
"7 c #727373",
"8 c #757676",
"9 c #777878",
"0 c #797A7A",
"q c #7B7C7C",
"w c #7D7E7E",
"e c #7F8080",
"r c #818282",
"t c gray54",
"y c #8D8E8E",
"u c #8F9090",
"i c #909090",
"p c #939494",
"a c #999A9A",
"s c #9C9D9D",
"d c #A0A1A1",
"f c #A3A4A4",
"g c #A4A5A5",
"h c #AAABAB",
"j c #B2B3B3",
"k c #B3B4B4",
"l c #B7B7B7",
"z c gray73",
"x c gray74",
"c c #BFC0C0",
"v c gray76",
"b c #C5C6C6",
"n c #C8C9C9",
"m c #D5D5D5",
"M c #DADADA",
"N c #DFDFDF",
"B c #DFE0E0",
"V c #ECEDED",
"C c gray95",
"Z c gray96",
"A c #F7F8F8",
"S c #F8F8F8",
"D c white",
/* pixels */
"                                                              ",
"   3dddddddddddddddddddddddddddddddddddddddddddddddddddddd3   ",
"   uDDDDDDDDDDDDDDDDDDDDDDDDDDDDDDDDDDDDDDDDDDDDDDDDDDDDDDy   ",
"   uD:1rlVDDDDDDDDDDDDDDDDDDDDDDDDDDDDDDDDDDDDDDDDDDVlr1>Dy   ",
"   uD=    &4pnSDDDDDDDDDDDDDDDDDDDDDDDDDDDDDDDDAni4&    -Dy   ",
"   uD=        X;6gMDDDDDDDDDDDDDDDDDDDDDDDDMf6;.        -Dy   ",
"   uD=             @1lDDDDDDDDDDDDDDDDDDl<@             -Dy   ",
"   uD=               qDDDDDDDDDDDDDDDDDD0               -Dy   ",
"   uD=               qDDDDDDDDDDDDDDDDDD0               -Dy   ",
"   uD=               qDDDDDDDDDDDDDDDDDD0               -Dy   ",
"   uD=               qDDDDDDDDDDDDDDDDDD0               -Dy   ",
"   3d$               qDDDDDDDDDDDDDDDDDD0               %d3   ",
"                     qDDDDDDDDDDDDDDDDDD0                     ",
"                     qDDDDDDDDDDDDDDDDDD0                     ",
"                     qDDDDDDDDDDDDDDDDDD0                     ",
"   uD=               qDDDDDDDDDDDDDDDDDD0               -Dy   ",
"   uD=               qDDDDDDDDDDDDDDDDDD0               -Dy   ",
"   uD=               qDDDDDDDDDDDDDDDDDD0               -Dy   ",
"   uD=               qDDDDDDDDDDDDDDDDDD0               -Dy   ",
"   uD=               qDDDDDDDDDDDDDDDDDD0               -Dy   ",
"   uD=               qDDDDDDDDDDDDDDDDDD0               -Dy   ",
"   uD=               qDDDDDDDDDDDDDDDDDD0               -Dy   ",
"   uD=               qDDDDDDDDDDDDDDDDDD0               -Dy   ",
"   uD=               qDDDDDDDDDDDDDDDDDD0               -Dy   ",
"   uD=               qDDDDDDDDDDDDDDDDDD0               -Dy   ",
"   uD=               qDDDDDDDDDDDDDDDDDD0               -Dy   ",
"   uD=               qDDDDDDDDDDDDDDDDDD0               -Dy   ",
"   iD=            $  qDDDDDDDDDDDDDDDDDD0  $            -Dy   ",
"   iD-           fDw qDDDDDDDDDDDDDDDDDD0 eDd           -Dy   ",
"   iD-           ZDb qDDDDDDDDDDDDDDDDDD0 nDC           -Dy   ",
"   iD-           xDt qDDDDDDDDDDDDDDDDDD0 yDz           -Dy   ",
"   iD=           ov  qDDDDDDDDDDDDDDDDDD0  vo           -Dy   ",
"   uD=            k  qDDDDDDDDDDDDDDDDDD0  j            -Dy   ",
"   uD=            k  qDDDDDDDDDDDDDDDDDD0  j            -Dy   ",
"   iD=           Ov  qDDDDDDDDDDDDDDDDDD0  vo           -Dy   ",
"   iD-           cDt qDDDDDDDDDDDDDDDDDD0 yDx           -Dy   ",
"   iD=           ZDb qDDDDDDDDDDDDDDDDDD0 nDC           -Dy   ",
"   iD-           sD7 qDDDDDDDDDDDDDDDDDD0 8Da           -Dy   ",
"   iD=            $  qDDDDDDDDDDDDDDDDDD0  $            -Dy   ",
"   uD=               qDDDDDDDDDDDDDDDDDD0               -Dy   ",
"   uD=               qDDDDDDDDDDDDDDDDDD0               -Dy   ",
"   uD=               qDDDDDDDDDDDDDDDDDD0               -Dy   ",
"   uD=               qDDDDDDDDDDDDDDDDDD0               -Dy   ",
"   uD=               qDDDDDDDDDDDDDDDDDD0               -Dy   ",
"   uD=               qDDDDDDDDDDDDDDDDDD0               -Dy   ",
"   uD=               qDDDDDDDDDDDDDDDDDD0               -Dy   ",
"   uD=               qDDDDDDDDDDDDDDDDDD0               -Dy   ",
"   uD=               qDDDDDDDDDDDDDDDDDD0               -Dy   ",
"   uD=               qDDDDDDDDDDDDDDDDDD0               -Dy   ",
"   uD=               qDDDDDDDDDDDDDDDDDD0               -Dy   ",
"   wB*               qDDDDDDDDDDDDDDDDDD0               *Bw   ",
"                     qDDDDDDDDDDDDDDDDDD0                     ",
"                     qDDDDDDDDDDDDDDDDDD0                     ",
"                     qDDDDDDDDDDDDDDDDDD0                     ",
"   3d$               qDDDDDDDDDDDDDDDDDD0               %d3   ",
"   uD=               qDDDDDDDDDDDDDDDDDD0               -Dy   ",
"   uD=               qDDDDDDDDDDDDDDDDDD0               -Dy   ",
"   uD=               qDDDDDDDDDDDDDDDDDD0               -Dy   ",
"   uD=               qDDDDDDDDDDDDDDDDDD0               -Dy   ",
"   uD=             #2lDDDDDDDDDDDDDDDDDDl1#             -Dy   ",
"   uD=        +,9hNDDDDDDDDDDDDDDDDDDDDDDDDNh8>+        -Dy   ",
"   uD=   X;5dmDDDDDDDDDDDDDDDDDDDDDDDDDDDDDDDDDDmd5;X   -Dy   "
};
