/* XPM */
static char *ca7f51e7c93f41f2bb60c6ecc7ee911aHKAJvo7Gy9GDgQhN[] = {
/* columns rows colors chars-per-pixel */
"62 62 187 2 ",
"   c #040404",
".  c #090709",
"X  c #080808",
"o  c #0B0A0B",
"O  c #100C0B",
"+  c #15100E",
"@  c #0D0D11",
"#  c #110E14",
"$  c #0E1016",
"%  c #151317",
"&  c #1B1413",
"*  c #12131B",
"=  c #19141D",
"-  c #201714",
";  c #2A1E1A",
":  c #2F221E",
">  c #1C1622",
",  c #191824",
"<  c #171C28",
"1  c #191D2A",
"2  c #211B26",
"3  c #241D2C",
"4  c #271F30",
"5  c #1D2332",
"6  c #272527",
"7  c #292729",
"8  c #2D2A2D",
"9  c #302327",
"0  c #3B2A24",
"q  c #2D2335",
"w  c #212738",
"e  c #22293B",
"r  c #33273D",
"t  c #422F29",
"y  c #4A342D",
"u  c #423030",
"i  c #543C34",
"p  c #5D4239",
"a  c #63463C",
"s  c #66483F",
"d  c #252C40",
"f  c #362A42",
"g  c #392D46",
"h  c #3C2F4B",
"j  c #2B344D",
"k  c #3E304D",
"l  c #2F3852",
"z  c #303A56",
"x  c #313B58",
"c  c #40324F",
"v  c #453555",
"b  c #4A3A5C",
"n  c #4E3C61",
"m  c #503E64",
"M  c #3B4051",
"N  c #394466",
"B  c #3C496C",
"V  c #514B55",
"C  c #6C4C42",
"Z  c #6E4F49",
"A  c #755146",
"S  c #765349",
"D  c #7B574B",
"F  c #7E594D",
"G  c #524065",
"H  c #554269",
"J  c #414E74",
"K  c #484F77",
"L  c #5B4771",
"P  c #544D77",
"I  c #5E4974",
"U  c #45547C",
"Y  c #4A577F",
"T  c #654E7C",
"R  c #6A567E",
"E  c #706C70",
"W  c #7D797E",
"Q  c #805A4E",
"!  c #865E52",
"~  c #8D6256",
"^  c #906457",
"/  c #936758",
"(  c #96695B",
")  c #996B5D",
"_  c #9F6F60",
"`  c #95717C",
"'  c #A37262",
"]  c #AA7666",
"[  c #AD7969",
"{  c #B47E6E",
"}  c #A6797E",
"|  c #B9816F",
" . c #BB8574",
".. c #C48876",
"X. c #475680",
"o. c #4B5A84",
"O. c #4E5E8B",
"+. c #535E8B",
"@. c #674F80",
"#. c #6A5283",
"$. c #6C5386",
"%. c #72598C",
"&. c #755A92",
"*. c #795D96",
"=. c #7B5E99",
"-. c #4F608E",
";. c #50608F",
":. c #516292",
">. c #5B6295",
",. c #5C6B98",
"<. c #606194",
"1. c #646499",
"2. c #6C649C",
"3. c #606F9A",
"4. c #72659F",
"5. c #7D619B",
"6. c #67759D",
"7. c #7665A0",
"8. c #7C65A2",
"9. c #7879A4",
"0. c #86658A",
"q. c #80639F",
"w. c #8D7299",
"e. c #AD7E8D",
"r. c #A97C9B",
"t. c #8667A7",
"y. c #8668A6",
"u. c #8E6CA5",
"i. c #8769A8",
"p. c #8A6CA9",
"a. c #916EA4",
"s. c #8E71AB",
"d. c #9277AE",
"f. c #957AAF",
"g. c #967CB1",
"h. c #987EB1",
"j. c #A67CA4",
"k. c #8F8B8F",
"l. c #978199",
"z. c #AE918E",
"x. c #BF9285",
"c. c #B98797",
"v. c #838DAC",
"b. c #9C84B4",
"n. c #9F88B6",
"m. c #9098B3",
"M. c #BC8AA1",
"N. c #A18AB7",
"B. c #A48EB9",
"V. c #A691BA",
"C. c #AA96BC",
"Z. c #AE9BBE",
"A. c #ABA8A7",
"S. c #A8ADBF",
"D. c #C58C8E",
"F. c #D49581",
"G. c #C18B98",
"H. c #D59897",
"J. c #E19E89",
"K. c #E8A28D",
"L. c #F0A790",
"P. c #F3A992",
"I. c #F9AD95",
"U. c #F2BDAC",
"Y. c #B09EC0",
"T. c #A9AEC0",
"R. c #B6A5C3",
"E. c #BBACC6",
"W. c #BEAFC8",
"Q. c #AFB1C2",
"!. c #B6B9C6",
"~. c #BCBAC1",
"^. c #BFB1C8",
"/. c #C2B6CB",
"(. c #C5BACC",
"). c #C9BECE",
"_. c #CAC7C6",
"`. c #CDC4D1",
"'. c #D0C7D3",
"]. c #D3CBD4",
"[. c #D6D1D7",
"{. c #DBD8D6",
"}. c #DAD4D9",
"|. c #DFDBDB",
" X c #E4CEC7",
".X c #E1DEDC",
"XX c #E3E0DE",
/* pixels */
"                                                                                                                            ",
"                                                                                                                            ",
"                                                                                                                            ",
"                                                          @                                           3                     ",
"                                                      % q m *.b 3                                   q R                     ",
"                                                            n t.t.%.>                             - 0.s.&                   ",
"                                                              G t.t.T                             u p.c.~                   ",
"                                                              k t.t.t.%                           2 H.} Z                   ",
"                                                              h t.t.*.b 3 r c m H r o             ! e.f.)                   ",
"                                                              h t.*.t.t.t.t.&.v %                 [ r.w.!                   ",
"                                                            q T t.j.M.` % #                       ! c.x.A                   ",
"                                                      > b #.L l.].U.P.x.%                         a F.P.0                   ",
"                                                  o 2 3 o     z.{..X X_.E                         0 K.L.&                   ",
"                                                              A.{.XX.XXX|.M *                     - I.J.O                   ",
"                                                          * B :.T.XXXXXXXX!.o.*                     L.P.                    ",
"                                                        d O.:.:.m.XXXXXXXXXX,.o.*                   ..K.                    ",
"                                                      x :.:.:.:.,.}.XXXXXXXX,.:.U o                 ) F.                    ",
"                                                  o N :.:.:.:.:.:.v.XXXXXX[.:.:.:.B                 D ..                    ",
"                                                  l :.:.:.:.:.:.:.:.S.XXXX!.:.:.:.O.5               a ..                    ",
"                                                  N O.;.:.:.:.:.:.:.>.!.~.9.:.:.O.U o               s |                     ",
"                                                > 5.7.+.o.O.:.:.:.:.:.:.5.:.:.:.o.P                 i [                     ",
"                                              3 5.t.t.t.2.+.o.o.-.:.:.:.Q.3.:.Y <.t.>               a _                     ",
"                                            q t.t.t.t.t.5.t.7.1.O.o.o.O.6.+.o.1.t.5.h               a /                     ",
"                                          f t.t.t.t.t.t.5.t.t.t.t.7.9.9.+.>.9.E.t.5.n               a D                     ",
"                                        n t.t.t.t.t.t.t.t.5.5.t.t.t.Z.XXp.%.s.(.t.5.I               s C                     ",
"                                    = I *.t.t.t.t.t.t.t.t.*.t.t.t.t.E.XXy.*.y.`.t.t.#.=             a C                     ",
"                      i A 9 k H $.=.t.t.t.5.t.t.t.t.t.t.t.*.t.t.t.t./..Xt.#.t.].t.t.5.t.#.b H #.5.0...{                     ",
"                      p [ K.G.a.t.t.t.t.t.t.t.t.t.t.t.t.5.t.t.t.t.t.`.}.t.t.t.[.i.t.5.t.t.t.t.t.t.G.F. .o                   ",
"                    . ; ) D.H.j.5.t.t.t.t.t.t.t.t.t.t.8.t.t.t.t.t.t.'.[.t.t.t.'.d.t.5.t.t.t.t.t.5.y.[ S                     ",
"                      o y b u.u.5.t.t.t.t.t.t.t.t.t.1.1.t.t.t.t.t.t.].].t.t.t.`.b.t.q.t.t.t.t.t.t.5.S a                     ",
"                          h t.t.5.t.t.t.t.t.t.t.#.K :.2.t.t.t.t.t.t.[.'.t.t.t.(.V.t.t.5.t.t.t.t.t.#.D p                     ",
"                          2 t.t.=.t.t.t.t.t.t.b   O.:.4.t.t.t.t.t.t.}.`.t.t.t.^.Z.t.t.5.t.t.t.t.t.L C p                     ",
"                            =.t.t.5.t.t.t.=.3   * :.:.7.t.t.t.t.t.t.|.).t.t.t.R.E.t.t.5.t.t.t.t.t.H F s                     ",
"                            g t.t.5.t.t.@.#     e :.:.8.t.t.t.t.t.y.XX(.t.t.t.Y.(.t.t.5.t.t.t.t.t.b ( C                     ",
"                              q *.t.=.g         z :.:.t.t.t.t.t.t.p.XX/.t.t.t.C.`.t.t.5.&.t.t.t.t.f / C                     ",
"                                . 4 o           J :.:.t.t.t.t.t.t.s.XX^.t.t.t.B.}.t.t.*.  o > f f   ^ s                     ",
"                                                O.:.>.t.t.t.t.t.t.d.XX^.t.t.t.b.XXp.t.t.            C C                     ",
"                                              * :.:.>.t.t.t.t.t.t.g.XXE.t.t.t.d.XXf.t.t.o           D A                     ",
"                                              w :.:.>.t.t.t.t.t.t.g.XXR.t.t.t.p.XXh.t.t.%           D D                     ",
"                                              z :.:.>.t.t.t.t.t.t.b.XXZ.t.t.t.y.XXb.t.t.>           A F                     ",
"                                              J :.:.1.t.t.t.t.t.t.b.XXB.t.t.t.t..Xb.t.t.3           C F                     ",
"                                            o :.:.:.2.t.t.t.t.t.t.b.XXb.t.t.t.t.|.b.t.t.q           a C                     ",
"                                            1 :.:.:.4.t.t.t.t.t.t.N.XXd.t.t.t.t.}.b.t.t.f           i Q                     ",
"                                            l ;.:.:.8.t.t.t.t.t.t.B.XXp.t.t.t.t.[.n.t.t.c           i ~                     ",
"                                            X.O.:.:.t.t.t.t.t.t.t.V.|.t.t.t.t.t.].N.t.t.b           y ~                     ",
"                                          1 :.O.:.1.t.t.t.t.t.t.t.C.].t.t.t.t.t.'.N.t.t.G           t /                     ",
"                                          B O.-.:.4.t.t.t.t.t.t.t.Y.`.t.t.t.t.t.`.B.t.t.I           0 (                     ",
"                                        1 :.O.:.:.t.t.t.t.t.t.t.t.R./.t.t.t.t.t.).V.t.t.#.          : )                     ",
"                                        U :.O.:.1.t.t.t.t.t.t.t.t.^.E.t.t.t.t.t.(.V.t.t.&.          ; ~                     ",
"                                      j :.:.o.:.7.t.t.t.t.t.t.t.t.).Y.t.t.t.t.t./.C.t.t.t.          & '                     ",
"                                    < :.:.o.:.>.t.t.t.t.t.t.t.t.t.].V.t.t.t.t.t.W.Z.t.t.t.%         + ]                     ",
"                                  * O.:.:.O.:.2.t.t.t.t.t.t.t.t.t.}.b.t.t.t.t.t.R.Y.t.t.t.4         o ]                     ",
"                                * o.:.:.-.O.:.t.t.t.t.t.t.t.t.t.i.XXd.t.t.t.t.t.Y.R.t.t.t.c           '                     ",
"                            o j O.:.:.:.o.:.1.t.t.t.t.t.t.t.t.t.Z.|.p.t.t.t.t.t.V.^.t.t.t.@.          [                     ",
"                  @ < e l J :.:.:.:.:.o.:.:.8.t.t.t.t.t.t.t.d.).[.g.t.t.t.t.t.t.d.[.p.t.t.t.m o       ]                     ",
"            @ B o.:.:.:.:.:.:.:.:.:.O.:.O.<.t.t.t.t.t.t.t.f.|.E.p.t.t.t.t.t.t.t.t.B.W.g.s.t.t.=.k o   &                     ",
"              @ 1 w e e w 1 , $ $ $ o     o g %.t.t.t.t.t.W.).5.t.t.t.t.t.t.t.t.t.t.b.E k.E.s.t.5.b                         ",
"                                                > g b H m W V 8 8 G I #.*.t.t.t.t.t.T 6 7 8 V 2                             ",
"                                                            % 8 6           @ # .           o o                             ",
"                                                            o 6 o                                                           ",
"                                                                                                                            ",
"                                                                                                                            "
};
