/* XPM */
static char *result[] = {
/* columns rows colors chars-per-pixel */
"62 62 66 1 ",
"  c #494949",
". c gray29",
"X c #4B4B4B",
"o c #4C4C4C",
"O c gray30",
"+ c #4E4E4E",
"@ c gray31",
"# c #505050",
"$ c #515151",
"% c gray32",
"& c #555555",
"* c gray35",
"= c #5A5A5A",
"- c #5F5F5F",
"; c #606060",
": c #626262",
"> c gray39",
", c #656565",
"< c gray40",
"1 c #676767",
"2 c #686868",
"3 c gray42",
"4 c #6C6C6C",
"5 c gray43",
"6 c #6F6F6F",
"7 c gray44",
"8 c #717171",
"9 c #727272",
"0 c #747474",
"q c gray46",
"w c #767676",
"e c #777777",
"r c gray47",
"t c #797979",
"y c gray48",
"u c #7B7B7B",
"i c #7C7C7C",
"p c gray49",
"a c gray50",
"s c #808080",
"d c #818181",
"f c gray51",
"g c #838383",
"h c #848484",
"j c gray52",
"k c #868686",
"l c gray53",
"z c #888888",
"x c #898989",
"c c gray54",
"v c #8B8B8B",
"b c gray55",
"n c #8D8D8D",
"m c #8E8E8E",
"M c gray56",
"N c #909090",
"B c gray57",
"V c #929292",
"C c #939393",
"Z c gray58",
"A c #959595",
"S c gray59",
"D c #979797",
"F c #989898",
"G c gray60",
"H c #9B9B9B",
/* pixels */
"XeOOOOOOOOOOOOOO;1OOOOOOOOOOOOOOi.OOOOOOOOOOOOOXzOOOOOOOOOOOOO",
"Oq@#############;2##############io#############Oz#############",
"Oq@#############;2##############io#############Oz#############",
"Oq@#############;2##############io#############Oz#############",
"Oq@#############;2##############io#############Oz#############",
"3m34444444444444id44444444444444N344444444444444F4444444444444",
":>::::::1N::::::::::::::aq::::::::::::::C:::::::>:::::::v:::::",
"########%h##############6>##############jO#############Xy#####",
"########%h##############6>##############jO#############Xy#####",
"########%h##############6>##############jO#############Xy#####",
"########%h##############6>##############jO#############Xy#####",
"oooooooo#joooooooooooooo5:oooooooooooooozXooooooooooooo iooooo",
"eCeeeeeeraeeeeeejleeeeeeiuwwwwwwCewwwwwwdeeeeeerSeeeeeeraeeeee",
"Oq@#############;2##############io#############Oz#############",
"Oq@#############;2##############io#############Oz#############",
"Oq@#############;2##############io#############Oz#############",
"Oq@#############;2##############io#############Oz#############",
"Oq@#############;2##############io#############Oz#############",
"eAwwwwwweiwwwwwwkzwwwwwwytwwwwwwArwwwwwwpewwwwwrGwwwwwweiwwwww",
"########&l##############9<##############c##############+a#####",
"########%h##############6>##############jO#############Xy#####",
"########%h##############6>##############jO#############Xy#####",
"########%h##############6>##############jO#############Xy#####",
"########%h##############6>##############jO#############Xy#####",
"========-b==============t6==============N==============*k=====",
"8Z78888888888888fl88888888888888A888888888888889H8888888888888",
"Oq@#############;2##############io#############Oz#############",
"Oq@#############;2##############io#############Oz#############",
"Oq@#############;2##############io#############Oz#############",
"Oq@#############;2##############io#############Oz#############",
"XeO+++++++++++++;2++++++++++++++pX+++++++++++++ox+++++++++++++",
"tbrrrrrrivrrrrrrghrrrrrrhfrrrrrrvtrrrrrrmyrrrrrynrrrrrryvrrrrr",
"++++++++$j++++++++++++++6:++++++++++++++lo+++++++++++++.u+++++",
"########%h##############6>##############jO#############Xy#####",
"########%h##############6>##############jO#############Xy#####",
"########%h##############6>##############jO#############Xy#####",
"########%h##############6>##############jO#############Xy#####",
"88888888wD88888888888888xf88888888888888H888888888888888Z88888",
"*j==============50==============l*==============B=============",
"Oq@#############;2##############io#############Oz#############",
"Oq@#############;2##############io#############Oz#############",
"Oq@#############;2##############io#############Oz#############",
"Oq@#############;2##############io#############Oz#############",
"@p#$$$$$$$$$$$$$,4$$$$$$$$$$$$$$d@$$$$$$$$$$$$$#b$$$$$$$$$$$$$",
"wiwwwwwwyAwwwwwwttwwwwwwchwwwwwwiwwwwwwwGewwwwwwiwwwwwweZwwwww",
"########%h##############6>##############jO#############Xy#####",
"########%h##############6>##############jO#############Xy#####",
"########%h##############6>##############jO#############Xy#####",
"########%h##############6>##############jO#############Xy#####",
"########%h##############6>##############jO#############Xy#####",
"rdeeeeeeuCeeeeeeppeeeeeezheeeeeesreeeeeeDreeeeerdeeeeeerVeeeee",
".toooooooooooooo;2oooooooooooooop oooooooooooooXxooooooooooooo",
"Oq@#############;2##############io#############Oz#############",
"Oq@#############;2##############io#############Oz#############",
"Oq@#############;2##############io#############Oz#############",
"Oq@#############;2##############io#############Oz#############",
":c:::::::>::::::qu:::::::>>>>>>>b:>>>>>>>::::::>Z:::::::>:::::",
"444444447Z44444444444444ji44444433444444D444444444444443M44444",
"########%h##############6>##############jO#############Xy#####",
"########%h##############6>##############jO#############Xy#####",
"########%h##############6>##############jO#############Xy#####",
"########%h##############6>##############jO#############Xy#####"
};
